<mxfile host="65bd71144e">
    <diagram id="gJtBvDTDY8tbQaz9ilAF" name="PortfolioSchema">
        <mxGraphModel dx="5542" dy="4900" grid="1" gridSize="10" guides="1" tooltips="1" connect="1" arrows="1" fold="1" page="1" pageScale="1" pageWidth="850" pageHeight="1100" math="0" shadow="0">
            <root>
                <mxCell id="0"/>
                <mxCell id="1" parent="0"/>
                <mxCell id="bacND96Qw1jEWHGxfEni-4" value="Constituent&lt;br&gt;&lt;font style=&quot;font-size: 20px&quot;&gt;组合成员（个股信息）：&lt;br&gt;- 代码&lt;br&gt;- 简称&lt;br&gt;- 权重&lt;br&gt;- ...&lt;br&gt;&lt;/font&gt;" style="whiteSpace=wrap;html=1;aspect=fixed;fontSize=40;strokeColor=#FF0000;" vertex="1" parent="1">
                    <mxGeometry x="410" y="50" width="280" height="280" as="geometry"/>
                </mxCell>
                <mxCell id="bacND96Qw1jEWHGxfEni-5" value="Benchmark&lt;br&gt;&lt;font style=&quot;font-size: 20px&quot;&gt;基准成员：&lt;br&gt;- 代码&lt;br&gt;- 简称&lt;br&gt;- 权重&lt;br&gt;- ...&lt;br&gt;&lt;/font&gt;" style="whiteSpace=wrap;html=1;aspect=fixed;fontSize=40;strokeColor=#FF0000;" vertex="1" parent="1">
                    <mxGeometry x="410" y="370" width="280" height="280" as="geometry"/>
                </mxCell>
                <mxCell id="bacND96Qw1jEWHGxfEni-6" value="Performance&lt;br&gt;&lt;font style=&quot;font-size: 20px&quot;&gt;表现：&lt;br&gt;- 组合表现&lt;br&gt;- 基准表现&lt;br&gt;- 标准差&lt;br&gt;- ...&lt;br&gt;&lt;/font&gt;" style="whiteSpace=wrap;html=1;aspect=fixed;fontSize=40;" vertex="1" parent="1">
                    <mxGeometry x="410" y="680" width="280" height="280" as="geometry"/>
                </mxCell>
                <mxCell id="bacND96Qw1jEWHGxfEni-8" style="edgeStyle=none;html=1;entryX=1;entryY=0.5;entryDx=0;entryDy=0;fontSize=20;exitX=0;exitY=0.5;exitDx=0;exitDy=0;" edge="1" parent="1" source="bacND96Qw1jEWHGxfEni-7" target="bacND96Qw1jEWHGxfEni-4">
                    <mxGeometry relative="1" as="geometry"/>
                </mxCell>
                <mxCell id="bacND96Qw1jEWHGxfEni-9" style="edgeStyle=none;html=1;exitX=0;exitY=0.5;exitDx=0;exitDy=0;entryX=1;entryY=0.5;entryDx=0;entryDy=0;fontSize=20;" edge="1" parent="1" source="bacND96Qw1jEWHGxfEni-7" target="bacND96Qw1jEWHGxfEni-5">
                    <mxGeometry relative="1" as="geometry"/>
                </mxCell>
                <mxCell id="bacND96Qw1jEWHGxfEni-10" style="edgeStyle=none;html=1;exitX=0;exitY=0.5;exitDx=0;exitDy=0;entryX=1;entryY=0.5;entryDx=0;entryDy=0;fontSize=20;" edge="1" parent="1" source="bacND96Qw1jEWHGxfEni-7" target="bacND96Qw1jEWHGxfEni-6">
                    <mxGeometry relative="1" as="geometry"/>
                </mxCell>
                <mxCell id="bacND96Qw1jEWHGxfEni-7" value="PortfolioJson&lt;br&gt;&lt;font style=&quot;font-size: 20px&quot;&gt;组合对象：&lt;br&gt;- Pact&lt;br&gt;- Constituent [ ]&lt;br&gt;- Benchmark [ ]&lt;br&gt;- Performance&lt;br&gt;&lt;/font&gt;" style="whiteSpace=wrap;html=1;aspect=fixed;fontSize=40;" vertex="1" parent="1">
                    <mxGeometry x="880" y="370" width="280" height="280" as="geometry"/>
                </mxCell>
                <mxCell id="bacND96Qw1jEWHGxfEni-12" value="AdjustmentInfo&lt;br&gt;&lt;font style=&quot;font-size: 20px&quot;&gt;调整信息：&lt;br&gt;- 代码&lt;br&gt;- 调整权重&lt;br&gt;- 调整方向&lt;br&gt;- 描述&lt;br&gt;&lt;/font&gt;" style="whiteSpace=wrap;html=1;aspect=fixed;fontSize=40;" vertex="1" parent="1">
                    <mxGeometry x="-380" y="570" width="280" height="280" as="geometry"/>
                </mxCell>
                <mxCell id="bacND96Qw1jEWHGxfEni-14" style="edgeStyle=none;html=1;exitX=0;exitY=0.5;exitDx=0;exitDy=0;entryX=1;entryY=0.5;entryDx=0;entryDy=0;fontSize=20;" edge="1" parent="1" source="bacND96Qw1jEWHGxfEni-13" target="bacND96Qw1jEWHGxfEni-7">
                    <mxGeometry relative="1" as="geometry"/>
                </mxCell>
                <mxCell id="bacND96Qw1jEWHGxfEni-16" value="数据库表结构" style="swimlane;fontSize=30;" vertex="1" parent="1">
                    <mxGeometry x="-450" y="-220" width="1260" height="1260" as="geometry"/>
                </mxCell>
                <mxCell id="2" value="Pact&lt;br&gt;&lt;font style=&quot;font-size: 20px&quot;&gt;组合的定义：&lt;br&gt;- &lt;font color=&quot;#ff0000&quot;&gt;研究员&lt;/font&gt;&lt;br&gt;- &lt;font color=&quot;#ff0000&quot;&gt;行业&lt;/font&gt;&lt;br&gt;- &lt;font color=&quot;#ff0000&quot;&gt;起始时间&lt;/font&gt;&lt;br&gt;- 结束时间&lt;br&gt;- 描述&lt;br&gt;- 数组&amp;lt;AdjustmentRecord&amp;gt;&lt;br&gt;&lt;/font&gt;" style="whiteSpace=wrap;html=1;aspect=fixed;fontSize=40;strokeColor=#FF0000;" vertex="1" parent="bacND96Qw1jEWHGxfEni-16">
                    <mxGeometry x="415" y="140" width="390" height="390" as="geometry"/>
                </mxCell>
                <mxCell id="3" value="AdjustmentRecord&lt;br&gt;&lt;font style=&quot;font-size: 20px&quot;&gt;调整记录：&lt;br&gt;- 调整日期&lt;br&gt;- 调整版本&lt;br&gt;&lt;/font&gt;" style="whiteSpace=wrap;html=1;aspect=fixed;fontSize=40;" vertex="1" parent="bacND96Qw1jEWHGxfEni-16">
                    <mxGeometry x="440" y="580" width="340" height="340" as="geometry"/>
                </mxCell>
                <mxCell id="4" style="edgeStyle=none;html=1;exitX=0.5;exitY=1;exitDx=0;exitDy=0;entryX=0.5;entryY=0;entryDx=0;entryDy=0;fontSize=40;" edge="1" parent="bacND96Qw1jEWHGxfEni-16" source="2" target="3">
                    <mxGeometry relative="1" as="geometry"/>
                </mxCell>
                <mxCell id="bacND96Qw1jEWHGxfEni-17" value="JSON结构" style="swimlane;fontSize=30;" vertex="1" parent="1">
                    <mxGeometry x="860" y="-220" width="1300" height="1260" as="geometry"/>
                </mxCell>
                <mxCell id="bacND96Qw1jEWHGxfEni-11" value="前端查询的是OverviewJson的数组&lt;br&gt;&lt;pre class=&quot;curl microlight&quot; style=&quot;box-sizing: border-box ; font-size: 12px ; overflow-wrap: break-word ; background: rgb(51 , 51 , 51) ; border-radius: 4px ; color: white ; font-weight: 600 ; margin-top: 0px ; margin-bottom: 0px ; padding: 0.5em ; word-break: break-word ; overflow-x: auto&quot;&gt;&lt;code class=&quot;language-bash&quot; style=&quot;box-sizing: border-box ; font-family: &amp;#34;consolas&amp;#34; , &amp;#34;monaco&amp;#34; , monospace ; font-size: 1em&quot;&gt;&lt;span style=&quot;box-sizing: inherit ; color: rgb(162 , 252 , 162)&quot;&gt;http://localhost:8060/v1/portfolio/portfolio_overview?isActivate=true&lt;/span&gt;&lt;/code&gt;&lt;/pre&gt;" style="text;html=1;strokeColor=none;fillColor=none;align=center;verticalAlign=middle;whiteSpace=wrap;rounded=0;fontSize=20;" vertex="1" parent="bacND96Qw1jEWHGxfEni-17">
                    <mxGeometry x="700" y="440" width="530" height="100" as="geometry"/>
                </mxCell>
                <mxCell id="bacND96Qw1jEWHGxfEni-13" value="OverviewJson&lt;br&gt;&lt;font style=&quot;font-size: 20px&quot;&gt;整体概览对象：&lt;br&gt;- 研究员&lt;br&gt;- 行业名称&lt;br&gt;- 组合收益率&lt;br&gt;- 行业基准收益率&lt;br&gt;- 标准差&lt;br&gt;&lt;/font&gt;" style="whiteSpace=wrap;html=1;aspect=fixed;fontSize=40;" vertex="1" parent="bacND96Qw1jEWHGxfEni-17">
                    <mxGeometry x="790" y="555" width="350" height="350" as="geometry"/>
                </mxCell>
                <mxCell id="bacND96Qw1jEWHGxfEni-15" value="查询组合详情&lt;br&gt;&lt;pre class=&quot;curl microlight&quot; style=&quot;box-sizing: border-box ; font-size: 12px ; overflow-wrap: break-word ; background: rgb(51 , 51 , 51) ; border-radius: 4px ; color: white ; font-weight: 600 ; margin-top: 0px ; margin-bottom: 0px ; padding: 0.5em ; word-break: break-word ; overflow-x: auto&quot;&gt;&lt;code class=&quot;language-bash&quot; style=&quot;box-sizing: border-box ; font-family: &amp;#34;consolas&amp;#34; , &amp;#34;monaco&amp;#34; , monospace ; font-size: 1em&quot;&gt;&lt;span style=&quot;box-sizing: inherit ; color: rgb(162 , 252 , 162)&quot;&gt;http://localhost:8060/v1/portfolio/portfolio_by_pact_id?pactId=1&lt;/span&gt;&lt;/code&gt;&lt;/pre&gt;" style="text;html=1;strokeColor=none;fillColor=none;align=center;verticalAlign=middle;whiteSpace=wrap;rounded=0;fontSize=20;" vertex="1" parent="bacND96Qw1jEWHGxfEni-17">
                    <mxGeometry x="340" y="630" width="410" height="100" as="geometry"/>
                </mxCell>
                <mxCell id="bacND96Qw1jEWHGxfEni-19" style="edgeStyle=none;html=1;entryX=0;entryY=0.25;entryDx=0;entryDy=0;fontSize=30;fontColor=#FF0000;exitX=0.5;exitY=1;exitDx=0;exitDy=0;" edge="1" parent="1" source="bacND96Qw1jEWHGxfEni-18" target="2">
                    <mxGeometry relative="1" as="geometry"/>
                </mxCell>
                <mxCell id="bacND96Qw1jEWHGxfEni-18" value="&lt;pre class=&quot;curl microlight&quot; style=&quot;box-sizing: border-box ; font-size: 12px ; overflow-wrap: break-word ; background: rgb(51 , 51 , 51) ; border-radius: 4px ; color: white ; font-weight: 600 ; margin-top: 0px ; margin-bottom: 0px ; padding: 0.5em ; word-break: break-word ; overflow-x: auto&quot;&gt;&lt;code class=&quot;language-bash&quot; style=&quot;box-sizing: border-box ; font-family: &amp;#34;consolas&amp;#34; , &amp;#34;monaco&amp;#34; , monospace ; font-size: 1em&quot;&gt;&lt;span style=&quot;box-sizing: inherit&quot;&gt;curl -X &lt;/span&gt;&lt;span style=&quot;box-sizing: inherit ; color: rgb(162 , 252 , 162)&quot;&gt;'POST'&lt;/span&gt;&lt;span style=&quot;box-sizing: inherit&quot;&gt; \&lt;br/&gt;&lt;/span&gt;&lt;span style=&quot;box-sizing: inherit&quot;&gt;  &lt;/span&gt;&lt;span style=&quot;box-sizing: inherit ; color: rgb(162 , 252 , 162)&quot;&gt;'http://localhost:8060/v1/portfolio/pact'&lt;/span&gt;&lt;span style=&quot;box-sizing: inherit&quot;&gt; \&lt;br/&gt;&lt;/span&gt;&lt;span style=&quot;box-sizing: inherit&quot;&gt;  -H &lt;/span&gt;&lt;span style=&quot;box-sizing: inherit ; color: rgb(162 , 252 , 162)&quot;&gt;'accept: */*'&lt;/span&gt;&lt;span style=&quot;box-sizing: inherit&quot;&gt; \&lt;br/&gt;&lt;/span&gt;&lt;span style=&quot;box-sizing: inherit&quot;&gt;  -H &lt;/span&gt;&lt;span style=&quot;box-sizing: inherit ; color: rgb(162 , 252 , 162)&quot;&gt;'Content-Type: application/json'&lt;/span&gt;&lt;span style=&quot;box-sizing: inherit&quot;&gt; \&lt;br/&gt;&lt;/span&gt;&lt;span style=&quot;box-sizing: inherit&quot;&gt;  -d &lt;/span&gt;&lt;span style=&quot;box-sizing: inherit ; color: rgb(162 , 252 , 162)&quot;&gt;'{&lt;br/&gt;&lt;/span&gt;&lt;span style=&quot;box-sizing: inherit ; color: rgb(162 , 252 , 162)&quot;&gt;  &quot;alias&quot;: &quot;string&quot;,&lt;br/&gt;&lt;/span&gt;&lt;span style=&quot;box-sizing: inherit ; color: rgb(162 , 252 , 162)&quot;&gt;  &quot;promoter&quot;: &quot;string&quot;,&lt;br/&gt;&lt;/span&gt;&lt;span style=&quot;box-sizing: inherit ; color: rgb(162 , 252 , 162)&quot;&gt;  &quot;industry&quot;: &quot;string&quot;,&lt;br/&gt;&lt;/span&gt;&lt;span style=&quot;box-sizing: inherit ; color: rgb(162 , 252 , 162)&quot;&gt;  &quot;startDate&quot;: &quot;2022-03-17&quot;,&lt;br/&gt;&lt;/span&gt;&lt;span style=&quot;box-sizing: inherit ; color: rgb(162 , 252 , 162)&quot;&gt;  &quot;endDate&quot;: &quot;2022-03-17&quot;,&lt;br/&gt;&lt;/span&gt;&lt;span style=&quot;box-sizing: inherit ; color: rgb(162 , 252 , 162)&quot;&gt;  &quot;description&quot;: &quot;string&quot;&lt;br/&gt;&lt;/span&gt;&lt;span style=&quot;box-sizing: inherit ; color: rgb(162 , 252 , 162)&quot;&gt;}'&lt;/span&gt;&lt;/code&gt;&lt;/pre&gt;" style="text;html=1;align=left;verticalAlign=top;whiteSpace=wrap;rounded=0;fontSize=30;fontColor=#FF0000;" vertex="1" parent="1">
                    <mxGeometry x="-450" y="-460" width="360" height="200" as="geometry"/>
                </mxCell>
                <mxCell id="bacND96Qw1jEWHGxfEni-21" style="edgeStyle=none;html=1;entryX=0.5;entryY=0;entryDx=0;entryDy=0;fontSize=30;fontColor=#FF0000;" edge="1" parent="1" source="bacND96Qw1jEWHGxfEni-20" target="bacND96Qw1jEWHGxfEni-4">
                    <mxGeometry relative="1" as="geometry"/>
                </mxCell>
                <mxCell id="bacND96Qw1jEWHGxfEni-20" value="&lt;pre class=&quot;curl microlight&quot; style=&quot;box-sizing: border-box ; font-size: 12px ; overflow-wrap: break-word ; background: rgb(51 , 51 , 51) ; border-radius: 4px ; color: white ; font-weight: 600 ; margin-top: 0px ; margin-bottom: 0px ; padding: 0.5em ; word-break: break-word ; overflow-x: auto&quot;&gt;&lt;code class=&quot;language-bash&quot; style=&quot;box-sizing: border-box ; font-family: &amp;#34;consolas&amp;#34; , &amp;#34;monaco&amp;#34; , monospace ; font-size: 1em&quot;&gt;&lt;span style=&quot;box-sizing: inherit&quot;&gt;curl -X &lt;/span&gt;&lt;span style=&quot;box-sizing: inherit ; color: rgb(162 , 252 , 162)&quot;&gt;'POST'&lt;/span&gt;&lt;span style=&quot;box-sizing: inherit&quot;&gt; \&lt;br/&gt;&lt;/span&gt;&lt;span style=&quot;box-sizing: inherit&quot;&gt;  &lt;/span&gt;&lt;span style=&quot;box-sizing: inherit ; color: rgb(162 , 252 , 162)&quot;&gt;'http://localhost:8060/v1/portfolio/constituent'&lt;/span&gt;&lt;span style=&quot;box-sizing: inherit&quot;&gt; \&lt;br/&gt;&lt;/span&gt;&lt;span style=&quot;box-sizing: inherit&quot;&gt;  -H &lt;/span&gt;&lt;span style=&quot;box-sizing: inherit ; color: rgb(162 , 252 , 162)&quot;&gt;'accept: */*'&lt;/span&gt;&lt;span style=&quot;box-sizing: inherit&quot;&gt; \&lt;br/&gt;&lt;/span&gt;&lt;span style=&quot;box-sizing: inherit&quot;&gt;  -H &lt;/span&gt;&lt;span style=&quot;box-sizing: inherit ; color: rgb(162 , 252 , 162)&quot;&gt;'Content-Type: application/json'&lt;/span&gt;&lt;span style=&quot;box-sizing: inherit&quot;&gt; \&lt;br/&gt;&lt;/span&gt;&lt;span style=&quot;box-sizing: inherit&quot;&gt;  -d &lt;/span&gt;&lt;span style=&quot;box-sizing: inherit ; color: rgb(162 , 252 , 162)&quot;&gt;'{&lt;br/&gt;&lt;/span&gt;&lt;span style=&quot;box-sizing: inherit ; color: rgb(162 , 252 , 162)&quot;&gt;  &quot;id&quot;: 0,&lt;br/&gt;&lt;/span&gt;&lt;span style=&quot;box-sizing: inherit ; color: rgb(162 , 252 , 162)&quot;&gt;  &quot;adjustmentRecord&quot;: {&lt;br/&gt;&lt;/span&gt;&lt;span style=&quot;box-sizing: inherit ; color: rgb(162 , 252 , 162)&quot;&gt;    &quot;id&quot;: 0,&lt;br/&gt;&lt;/span&gt;&lt;span style=&quot;box-sizing: inherit ; color: rgb(162 , 252 , 162)&quot;&gt;    &quot;adjustDate&quot;: &quot;2022-03-17&quot;,&lt;br/&gt;&lt;/span&gt;&lt;span style=&quot;box-sizing: inherit ; color: rgb(162 , 252 , 162)&quot;&gt;    &quot;adjustVersion&quot;: 0&lt;br/&gt;&lt;/span&gt;&lt;span style=&quot;box-sizing: inherit ; color: rgb(162 , 252 , 162)&quot;&gt;  },&lt;br/&gt;&lt;/span&gt;&lt;span style=&quot;box-sizing: inherit ; color: rgb(162 , 252 , 162)&quot;&gt;  &quot;adjustDate&quot;: &quot;2022-03-17&quot;,&lt;br/&gt;&lt;/span&gt;&lt;span style=&quot;box-sizing: inherit ; color: rgb(162 , 252 , 162)&quot;&gt;  &quot;symbol&quot;: &quot;string&quot;,&lt;br/&gt;&lt;/span&gt;&lt;span style=&quot;box-sizing: inherit ; color: rgb(162 , 252 , 162)&quot;&gt;  &quot;abbreviation&quot;: &quot;string&quot;,&lt;br/&gt;&lt;/span&gt;&lt;span style=&quot;box-sizing: inherit ; color: rgb(162 , 252 , 162)&quot;&gt;  &quot;adjustDatePrice&quot;: 0,&lt;br/&gt;&lt;/span&gt;&lt;span style=&quot;box-sizing: inherit ; color: rgb(162 , 252 , 162)&quot;&gt;  &quot;currentPrice&quot;: 0,&lt;br/&gt;&lt;/span&gt;&lt;span style=&quot;box-sizing: inherit ; color: rgb(162 , 252 , 162)&quot;&gt;  &quot;adjustDateFactor&quot;: 0,&lt;br/&gt;&lt;/span&gt;&lt;span style=&quot;box-sizing: inherit ; color: rgb(162 , 252 , 162)&quot;&gt;  &quot;currentFactor&quot;: 0,&lt;br/&gt;&lt;/span&gt;&lt;span style=&quot;box-sizing: inherit ; color: rgb(162 , 252 , 162)&quot;&gt;  &quot;staticWeight&quot;: 0,&lt;br/&gt;&lt;/span&gt;&lt;span style=&quot;box-sizing: inherit ; color: rgb(162 , 252 , 162)&quot;&gt;  &quot;dynamicWeight&quot;: 0,&lt;br/&gt;&lt;/span&gt;&lt;span style=&quot;box-sizing: inherit ; color: rgb(162 , 252 , 162)&quot;&gt;  &quot;pbpe&quot;: 0,&lt;br/&gt;&lt;/span&gt;&lt;span style=&quot;box-sizing: inherit ; color: rgb(162 , 252 , 162)&quot;&gt;  &quot;marketValue&quot;: 0,&lt;br/&gt;&lt;/span&gt;&lt;span style=&quot;box-sizing: inherit ; color: rgb(162 , 252 , 162)&quot;&gt;  &quot;earningsYield&quot;: 0,&lt;br/&gt;&lt;/span&gt;&lt;span style=&quot;box-sizing: inherit ; color: rgb(162 , 252 , 162)&quot;&gt;  &quot;get_adjustment_record_id&quot;: 0&lt;br/&gt;&lt;/span&gt;&lt;span style=&quot;box-sizing: inherit ; color: rgb(162 , 252 , 162)&quot;&gt;}'&lt;/span&gt;&lt;/code&gt;&lt;/pre&gt;" style="text;html=1;align=left;verticalAlign=top;whiteSpace=wrap;rounded=0;fontSize=30;fontColor=#FF0000;" vertex="1" parent="1">
                    <mxGeometry x="362.5" y="-700" width="375" height="400" as="geometry"/>
                </mxCell>
                <mxCell id="bacND96Qw1jEWHGxfEni-23" style="edgeStyle=none;html=1;entryX=0;entryY=0.75;entryDx=0;entryDy=0;fontSize=30;fontColor=#FF0000;" edge="1" parent="1" source="bacND96Qw1jEWHGxfEni-22" target="bacND96Qw1jEWHGxfEni-5">
                    <mxGeometry relative="1" as="geometry"/>
                </mxCell>
                <mxCell id="bacND96Qw1jEWHGxfEni-22" value="&lt;pre class=&quot;curl microlight&quot; style=&quot;box-sizing: border-box; font-family: monospace; font-size: 12px; overflow-wrap: break-word; background: rgb(51, 51, 51); border-radius: 4px; color: white; font-weight: 600; margin: 0px; padding: 0.5em; word-break: break-word; font-style: normal; letter-spacing: normal; text-indent: 0px; text-transform: none; word-spacing: 0px; display: block; overflow-x: auto;&quot;&gt;&lt;code class=&quot;language-bash&quot; style=&quot;box-sizing: border-box; font-family: consolas, monaco, monospace; font-size: 1em;&quot;&gt;&lt;span style=&quot;box-sizing: inherit&quot;&gt;curl -X &lt;/span&gt;&lt;span style=&quot;box-sizing: inherit ; color: rgb(162 , 252 , 162)&quot;&gt;'POST'&lt;/span&gt;&lt;span style=&quot;box-sizing: inherit&quot;&gt; \&#10;&lt;/span&gt;&lt;span style=&quot;box-sizing: inherit&quot;&gt;  &lt;/span&gt;&lt;span style=&quot;box-sizing: inherit ; color: rgb(162 , 252 , 162)&quot;&gt;'http://localhost:8060/v1/portfolio/benchmark'&lt;/span&gt;&lt;span style=&quot;box-sizing: inherit&quot;&gt; \&#10;&lt;/span&gt;&lt;span style=&quot;box-sizing: inherit&quot;&gt;  -H &lt;/span&gt;&lt;span style=&quot;box-sizing: inherit ; color: rgb(162 , 252 , 162)&quot;&gt;'accept: */*'&lt;/span&gt;&lt;span style=&quot;box-sizing: inherit&quot;&gt; \&#10;&lt;/span&gt;&lt;span style=&quot;box-sizing: inherit&quot;&gt;  -H &lt;/span&gt;&lt;span style=&quot;box-sizing: inherit ; color: rgb(162 , 252 , 162)&quot;&gt;'Content-Type: application/json'&lt;/span&gt;&lt;span style=&quot;box-sizing: inherit&quot;&gt; \&#10;&lt;/span&gt;&lt;span style=&quot;box-sizing: inherit&quot;&gt;  -d &lt;/span&gt;&lt;span style=&quot;box-sizing: inherit ; color: rgb(162 , 252 , 162)&quot;&gt;'{&#10;&lt;/span&gt;&lt;span style=&quot;box-sizing: inherit ; color: rgb(162 , 252 , 162)&quot;&gt;  &quot;id&quot;: 0,&#10;&lt;/span&gt;&lt;span style=&quot;box-sizing: inherit ; color: rgb(162 , 252 , 162)&quot;&gt;  &quot;adjustmentRecord&quot;: {&#10;&lt;/span&gt;&lt;span style=&quot;box-sizing: inherit ; color: rgb(162 , 252 , 162)&quot;&gt;    &quot;id&quot;: 0,&#10;&lt;/span&gt;&lt;span style=&quot;box-sizing: inherit ; color: rgb(162 , 252 , 162)&quot;&gt;    &quot;adjustDate&quot;: &quot;2022-03-17&quot;,&#10;&lt;/span&gt;&lt;span style=&quot;box-sizing: inherit ; color: rgb(162 , 252 , 162)&quot;&gt;    &quot;adjustVersion&quot;: 0&#10;&lt;/span&gt;&lt;span style=&quot;box-sizing: inherit ; color: rgb(162 , 252 , 162)&quot;&gt;  },&#10;&lt;/span&gt;&lt;span style=&quot;box-sizing: inherit ; color: rgb(162 , 252 , 162)&quot;&gt;  &quot;adjustDate&quot;: &quot;2022-03-17&quot;,&#10;&lt;/span&gt;&lt;span style=&quot;box-sizing: inherit ; color: rgb(162 , 252 , 162)&quot;&gt;  &quot;benchmarkName&quot;: &quot;string&quot;,&#10;&lt;/span&gt;&lt;span style=&quot;box-sizing: inherit ; color: rgb(162 , 252 , 162)&quot;&gt;  &quot;percentageChange&quot;: 0,&#10;&lt;/span&gt;&lt;span style=&quot;box-sizing: inherit ; color: rgb(162 , 252 , 162)&quot;&gt;  &quot;staticWeight&quot;: 0,&#10;&lt;/span&gt;&lt;span style=&quot;box-sizing: inherit ; color: rgb(162 , 252 , 162)&quot;&gt;  &quot;dynamicWeight&quot;: 0,&#10;&lt;/span&gt;&lt;span style=&quot;box-sizing: inherit ; color: rgb(162 , 252 , 162)&quot;&gt;  &quot;get_adjustment_record_id&quot;: 0&#10;&lt;/span&gt;&lt;span style=&quot;box-sizing: inherit ; color: rgb(162 , 252 , 162)&quot;&gt;}'&lt;/span&gt;&lt;/code&gt;&lt;/pre&gt;" style="text;whiteSpace=wrap;html=1;fontSize=30;fontColor=#FF0000;" vertex="1" parent="1">
                    <mxGeometry x="-70" y="1170" width="370" height="290" as="geometry"/>
                </mxCell>
                <mxCell id="bacND96Qw1jEWHGxfEni-24" value="&lt;pre class=&quot;curl microlight&quot; style=&quot;box-sizing: border-box; font-family: monospace; font-size: 12px; overflow-wrap: break-word; background: rgb(51, 51, 51); border-radius: 4px; color: white; font-weight: 600; margin: 0px; padding: 0.5em; word-break: break-word; font-style: normal; letter-spacing: normal; text-indent: 0px; text-transform: none; word-spacing: 0px; display: block; overflow-x: auto;&quot;&gt;&lt;code class=&quot;language-bash&quot; style=&quot;box-sizing: border-box; font-family: consolas, monaco, monospace; font-size: 1em;&quot;&gt;&lt;span style=&quot;box-sizing: inherit&quot;&gt;curl -X &lt;/span&gt;&lt;span style=&quot;box-sizing: inherit ; color: rgb(162 , 252 , 162)&quot;&gt;'POST'&lt;/span&gt;&lt;span style=&quot;box-sizing: inherit&quot;&gt; \&#10;&lt;/span&gt;&lt;span style=&quot;box-sizing: inherit&quot;&gt;  &lt;/span&gt;&lt;span style=&quot;box-sizing: inherit ; color: rgb(162 , 252 , 162)&quot;&gt;'http://localhost:8060/v1/portfolio/portfolio_adjust?pactId=1'&lt;/span&gt;&lt;span style=&quot;box-sizing: inherit&quot;&gt; \&#10;&lt;/span&gt;&lt;span style=&quot;box-sizing: inherit&quot;&gt;  -H &lt;/span&gt;&lt;span style=&quot;box-sizing: inherit ; color: rgb(162 , 252 , 162)&quot;&gt;'accept: */*'&lt;/span&gt;&lt;span style=&quot;box-sizing: inherit&quot;&gt; \&#10;&lt;/span&gt;&lt;span style=&quot;box-sizing: inherit&quot;&gt;  -H &lt;/span&gt;&lt;span style=&quot;box-sizing: inherit ; color: rgb(162 , 252 , 162)&quot;&gt;'Content-Type: application/json'&lt;/span&gt;&lt;span style=&quot;box-sizing: inherit&quot;&gt; \&#10;&lt;/span&gt;&lt;span style=&quot;box-sizing: inherit&quot;&gt;  -d &lt;/span&gt;&lt;span style=&quot;box-sizing: inherit ; color: rgb(162 , 252 , 162)&quot;&gt;'{&#10;&lt;/span&gt;&lt;span style=&quot;box-sizing: inherit ; color: rgb(162 , 252 , 162)&quot;&gt;  &quot;adjustDate&quot;: &quot;2022-03-17&quot;,&#10;&lt;/span&gt;&lt;span style=&quot;box-sizing: inherit ; color: rgb(162 , 252 , 162)&quot;&gt;  &quot;constituents&quot;: [&#10;&lt;/span&gt;&lt;span style=&quot;box-sizing: inherit ; color: rgb(162 , 252 , 162)&quot;&gt;    {&#10;&lt;/span&gt;&lt;span style=&quot;box-sizing: inherit ; color: rgb(162 , 252 , 162)&quot;&gt;      &quot;id&quot;: 0,&#10;&lt;/span&gt;&lt;span style=&quot;box-sizing: inherit ; color: rgb(162 , 252 , 162)&quot;&gt;      &quot;adjustmentRecord&quot;: {&#10;&lt;/span&gt;&lt;span style=&quot;box-sizing: inherit ; color: rgb(162 , 252 , 162)&quot;&gt;        &quot;id&quot;: 0,&#10;&lt;/span&gt;&lt;span style=&quot;box-sizing: inherit ; color: rgb(162 , 252 , 162)&quot;&gt;        &quot;adjustDate&quot;: &quot;2022-03-17&quot;,&#10;&lt;/span&gt;&lt;span style=&quot;box-sizing: inherit ; color: rgb(162 , 252 , 162)&quot;&gt;        &quot;adjustVersion&quot;: 0&#10;&lt;/span&gt;&lt;span style=&quot;box-sizing: inherit ; color: rgb(162 , 252 , 162)&quot;&gt;      },&#10;&lt;/span&gt;&lt;span style=&quot;box-sizing: inherit ; color: rgb(162 , 252 , 162)&quot;&gt;      &quot;adjustDate&quot;: &quot;2022-03-17&quot;,&#10;&lt;/span&gt;&lt;span style=&quot;box-sizing: inherit ; color: rgb(162 , 252 , 162)&quot;&gt;      &quot;symbol&quot;: &quot;string&quot;,&#10;&lt;/span&gt;&lt;span style=&quot;box-sizing: inherit ; color: rgb(162 , 252 , 162)&quot;&gt;      &quot;abbreviation&quot;: &quot;string&quot;,&#10;&lt;/span&gt;&lt;span style=&quot;box-sizing: inherit ; color: rgb(162 , 252 , 162)&quot;&gt;      &quot;adjustDatePrice&quot;: 0,&#10;&lt;/span&gt;&lt;span style=&quot;box-sizing: inherit ; color: rgb(162 , 252 , 162)&quot;&gt;      &quot;currentPrice&quot;: 0,&#10;&lt;/span&gt;&lt;span style=&quot;box-sizing: inherit ; color: rgb(162 , 252 , 162)&quot;&gt;      &quot;adjustDateFactor&quot;: 0,&#10;&lt;/span&gt;&lt;span style=&quot;box-sizing: inherit ; color: rgb(162 , 252 , 162)&quot;&gt;      &quot;currentFactor&quot;: 0,&#10;&lt;/span&gt;&lt;span style=&quot;box-sizing: inherit ; color: rgb(162 , 252 , 162)&quot;&gt;      &quot;staticWeight&quot;: 0,&#10;&lt;/span&gt;&lt;span style=&quot;box-sizing: inherit ; color: rgb(162 , 252 , 162)&quot;&gt;      &quot;dynamicWeight&quot;: 0,&#10;&lt;/span&gt;&lt;span style=&quot;box-sizing: inherit ; color: rgb(162 , 252 , 162)&quot;&gt;      &quot;pbpe&quot;: 0,&#10;&lt;/span&gt;&lt;span style=&quot;box-sizing: inherit ; color: rgb(162 , 252 , 162)&quot;&gt;      &quot;marketValue&quot;: 0,&#10;&lt;/span&gt;&lt;span style=&quot;box-sizing: inherit ; color: rgb(162 , 252 , 162)&quot;&gt;      &quot;earningsYield&quot;: 0,&#10;&lt;/span&gt;&lt;span style=&quot;box-sizing: inherit ; color: rgb(162 , 252 , 162)&quot;&gt;      &quot;get_adjustment_record_id&quot;: 0&#10;&lt;/span&gt;&lt;span style=&quot;box-sizing: inherit ; color: rgb(162 , 252 , 162)&quot;&gt;    }&#10;&lt;/span&gt;&lt;span style=&quot;box-sizing: inherit ; color: rgb(162 , 252 , 162)&quot;&gt;  ],&#10;&lt;/span&gt;&lt;span style=&quot;box-sizing: inherit ; color: rgb(162 , 252 , 162)&quot;&gt;  &quot;benchmarks&quot;: [&#10;&lt;/span&gt;&lt;span style=&quot;box-sizing: inherit ; color: rgb(162 , 252 , 162)&quot;&gt;    {&#10;&lt;/span&gt;&lt;span style=&quot;box-sizing: inherit ; color: rgb(162 , 252 , 162)&quot;&gt;      &quot;id&quot;: 0,&#10;&lt;/span&gt;&lt;span style=&quot;box-sizing: inherit ; color: rgb(162 , 252 , 162)&quot;&gt;      &quot;adjustmentRecord&quot;: {&#10;&lt;/span&gt;&lt;span style=&quot;box-sizing: inherit ; color: rgb(162 , 252 , 162)&quot;&gt;        &quot;id&quot;: 0,&#10;&lt;/span&gt;&lt;span style=&quot;box-sizing: inherit ; color: rgb(162 , 252 , 162)&quot;&gt;        &quot;adjustDate&quot;: &quot;2022-03-17&quot;,&#10;&lt;/span&gt;&lt;span style=&quot;box-sizing: inherit ; color: rgb(162 , 252 , 162)&quot;&gt;        &quot;adjustVersion&quot;: 0&#10;&lt;/span&gt;&lt;span style=&quot;box-sizing: inherit ; color: rgb(162 , 252 , 162)&quot;&gt;      },&#10;&lt;/span&gt;&lt;span style=&quot;box-sizing: inherit ; color: rgb(162 , 252 , 162)&quot;&gt;      &quot;adjustDate&quot;: &quot;2022-03-17&quot;,&#10;&lt;/span&gt;&lt;span style=&quot;box-sizing: inherit ; color: rgb(162 , 252 , 162)&quot;&gt;      &quot;benchmarkName&quot;: &quot;string&quot;,&#10;&lt;/span&gt;&lt;span style=&quot;box-sizing: inherit ; color: rgb(162 , 252 , 162)&quot;&gt;      &quot;percentageChange&quot;: 0,&#10;&lt;/span&gt;&lt;span style=&quot;box-sizing: inherit ; color: rgb(162 , 252 , 162)&quot;&gt;      &quot;staticWeight&quot;: 0,&#10;&lt;/span&gt;&lt;span style=&quot;box-sizing: inherit ; color: rgb(162 , 252 , 162)&quot;&gt;      &quot;dynamicWeight&quot;: 0,&#10;&lt;/span&gt;&lt;span style=&quot;box-sizing: inherit ; color: rgb(162 , 252 , 162)&quot;&gt;      &quot;get_adjustment_record_id&quot;: 0&#10;&lt;/span&gt;&lt;span style=&quot;box-sizing: inherit ; color: rgb(162 , 252 , 162)&quot;&gt;    }&#10;&lt;/span&gt;&lt;span style=&quot;box-sizing: inherit ; color: rgb(162 , 252 , 162)&quot;&gt;  ]&#10;&lt;/span&gt;&lt;span style=&quot;box-sizing: inherit ; color: rgb(162 , 252 , 162)&quot;&gt;}'&lt;/span&gt;&lt;/code&gt;&lt;/pre&gt;" style="text;whiteSpace=wrap;html=1;fontSize=30;fontColor=#FF0000;" vertex="1" parent="1">
                    <mxGeometry x="540" y="1270" width="480" height="740" as="geometry"/>
                </mxCell>
                <mxCell id="bacND96Qw1jEWHGxfEni-25" value="前端对组合进行调整时，只需要调用这个接口" style="text;html=1;strokeColor=none;fillColor=none;align=center;verticalAlign=middle;whiteSpace=wrap;rounded=0;fontSize=30;fontColor=#FF0000;" vertex="1" parent="1">
                    <mxGeometry x="420" y="1240" width="720" height="30" as="geometry"/>
                </mxCell>
            </root>
        </mxGraphModel>
    </diagram>
</mxfile>